<svg class="Brand Brand-symbol" fill="white" xmlns="http://www.w3.org/2000/svg" viewBox="0 0 78 56"><path d="M77.08 23.39a23.06 23.06 0 0 1-19.2 22.73v8.94a.6.6 0 0 1-.82.55l-4.45-1.77a39.85 39.85 0 0 1-10.75-6.94 35.31 35.31 0 0 1-5.16-5.76.3.3 0 0 1 0-.35 29.67 29.67 0 0 0 3.17-5.3c.31-.67.58-1.35.84-2a.15.15 0 0 1 .27 0A25.82 25.82 0 0 0 46.82 41a32.77 32.77 0 0 0 3.37 2.69v-4.64a.3.3 0 0 1 .3-.3H54A15.36 15.36 0 1 0 41.17 15a.15.15 0 0 1-.26 0 23.07 23.07 0 0 0-4-6.61.3.3 0 0 1 0-.39c.27-.3.54-.59.82-.87a23 23 0 0 1 39.34 16.3zm-38.41 0a25.6 25.6 0 0 1-9 19.39 32.74 32.74 0 0 1-8.83 5.69l-4.45 1.77a.6.6 0 0 1-.82-.55v-7.48a19.21 19.21 0 1 1 23-18.82zm-7.68 0a11.52 11.52 0 1 0-11.53 11.52H23a.3.3 0 0 1 .3.3v2.92c.48-.37 1-.78 1.45-1.23A17.84 17.84 0 0 0 31 23.39z"></path></svg>
